<mxfile host="app.diagrams.net" agent="Mozilla/5.0 (Windows NT 10.0; Win64; x64; rv:130.0) Gecko/20100101 Firefox/130.0" version="24.7.14">
  <diagram name="Page-1" id="1VwgqNChuWMemx6qFAxK">
    <mxGraphModel dx="1434" dy="774" grid="1" gridSize="10" guides="1" tooltips="1" connect="1" arrows="1" fold="1" page="1" pageScale="1" pageWidth="827" pageHeight="1169" math="0" shadow="0">
      <root>
        <mxCell id="0" />
        <mxCell id="1" parent="0" />
        <mxCell id="gbquePx31MklGb_rPzh0-11" style="rounded=0;orthogonalLoop=1;jettySize=auto;html=1;exitX=1;exitY=0.25;exitDx=0;exitDy=0;exitPerimeter=0;entryX=0;entryY=0.5;entryDx=0;entryDy=0;edgeStyle=entityRelationEdgeStyle;startArrow=none;startFill=0;endArrow=none;endFill=0;" edge="1" parent="1" source="gbquePx31MklGb_rPzh0-1" target="gbquePx31MklGb_rPzh0-8">
          <mxGeometry relative="1" as="geometry" />
        </mxCell>
        <mxCell id="gbquePx31MklGb_rPzh0-1" value="Site Web Nodejs" style="sketch=0;points=[[0,0,0],[0.25,0,0],[0.5,0,0],[0.75,0,0],[1,0,0],[0,1,0],[0.25,1,0],[0.5,1,0],[0.75,1,0],[1,1,0],[0,0.25,0],[0,0.5,0],[0,0.75,0],[1,0.25,0],[1,0.5,0],[1,0.75,0]];outlineConnect=0;fontColor=#232F3E;fillColor=#01A88D;strokeColor=#ffffff;dashed=0;verticalLabelPosition=bottom;verticalAlign=top;align=center;html=1;fontSize=12;fontStyle=0;aspect=fixed;shape=mxgraph.aws4.resourceIcon;resIcon=mxgraph.aws4.desktop_and_app_streaming;" vertex="1" parent="1">
          <mxGeometry x="40" y="80" width="78" height="78" as="geometry" />
        </mxCell>
        <mxCell id="gbquePx31MklGb_rPzh0-37" style="rounded=0;orthogonalLoop=1;jettySize=auto;html=1;exitX=0.25;exitY=1;exitDx=0;exitDy=0;exitPerimeter=0;edgeStyle=orthogonalEdgeStyle;" edge="1" parent="1" source="gbquePx31MklGb_rPzh0-7" target="gbquePx31MklGb_rPzh0-31">
          <mxGeometry relative="1" as="geometry" />
        </mxCell>
        <mxCell id="gbquePx31MklGb_rPzh0-7" value="&lt;div&gt;API&lt;/div&gt;&lt;div&gt;&lt;br&gt;&lt;/div&gt;" style="sketch=0;points=[[0,0,0],[0.25,0,0],[0.5,0,0],[0.75,0,0],[1,0,0],[0,1,0],[0.25,1,0],[0.5,1,0],[0.75,1,0],[1,1,0],[0,0.25,0],[0,0.5,0],[0,0.75,0],[1,0.25,0],[1,0.5,0],[1,0.75,0]];outlineConnect=0;fontColor=#232F3E;fillColor=#C925D1;strokeColor=#ffffff;dashed=0;verticalLabelPosition=bottom;verticalAlign=top;align=center;html=1;fontSize=12;fontStyle=0;aspect=fixed;shape=mxgraph.aws4.resourceIcon;resIcon=mxgraph.aws4.cloud_control_api;" vertex="1" parent="1">
          <mxGeometry x="201" y="160" width="78" height="78" as="geometry" />
        </mxCell>
        <mxCell id="gbquePx31MklGb_rPzh0-8" value="" style="strokeColor=#dddddd;shadow=1;strokeWidth=1;rounded=1;absoluteArcSize=1;arcSize=2;" vertex="1" parent="1">
          <mxGeometry x="190" y="50" width="100" height="60" as="geometry" />
        </mxCell>
        <mxCell id="gbquePx31MklGb_rPzh0-9" value="Firebase" style="sketch=0;dashed=0;connectable=0;html=1;fillColor=#5184F3;strokeColor=none;shape=mxgraph.gcp2.firebase;part=1;labelPosition=right;verticalLabelPosition=middle;align=left;verticalAlign=middle;spacingLeft=5;fontColor=#999999;fontSize=12;" vertex="1" parent="gbquePx31MklGb_rPzh0-8">
          <mxGeometry width="32.4" height="45" relative="1" as="geometry">
            <mxPoint x="5" y="7" as="offset" />
          </mxGeometry>
        </mxCell>
        <mxCell id="gbquePx31MklGb_rPzh0-10" style="edgeStyle=entityRelationEdgeStyle;rounded=0;orthogonalLoop=1;jettySize=auto;html=1;exitX=1;exitY=0.75;exitDx=0;exitDy=0;exitPerimeter=0;entryX=0;entryY=0.5;entryDx=0;entryDy=0;entryPerimeter=0;endArrow=none;endFill=0;" edge="1" parent="1" source="gbquePx31MklGb_rPzh0-1" target="gbquePx31MklGb_rPzh0-7">
          <mxGeometry relative="1" as="geometry" />
        </mxCell>
        <mxCell id="gbquePx31MklGb_rPzh0-38" style="edgeStyle=orthogonalEdgeStyle;rounded=0;orthogonalLoop=1;jettySize=auto;html=1;exitX=0;exitY=0.5;exitDx=0;exitDy=0;exitPerimeter=0;" edge="1" parent="1" source="gbquePx31MklGb_rPzh0-18" target="gbquePx31MklGb_rPzh0-34">
          <mxGeometry relative="1" as="geometry" />
        </mxCell>
        <mxCell id="gbquePx31MklGb_rPzh0-18" value="&lt;div&gt;Application Web&lt;/div&gt;&lt;div&gt;Blazor&lt;br&gt;&lt;/div&gt;&lt;div&gt;Version installable&lt;br&gt; &lt;/div&gt;" style="sketch=0;points=[[0,0,0],[0.25,0,0],[0.5,0,0],[0.75,0,0],[1,0,0],[0,1,0],[0.25,1,0],[0.5,1,0],[0.75,1,0],[1,1,0],[0,0.25,0],[0,0.5,0],[0,0.75,0],[1,0.25,0],[1,0.5,0],[1,0.75,0]];outlineConnect=0;fontColor=#232F3E;fillColor=#E7157B;strokeColor=#ffffff;dashed=0;verticalLabelPosition=bottom;verticalAlign=top;align=center;html=1;fontSize=12;fontStyle=0;aspect=fixed;shape=mxgraph.aws4.resourceIcon;resIcon=mxgraph.aws4.application_integration;" vertex="1" parent="1">
          <mxGeometry x="360" y="238" width="78" height="78" as="geometry" />
        </mxCell>
        <mxCell id="gbquePx31MklGb_rPzh0-35" style="edgeStyle=orthogonalEdgeStyle;rounded=0;orthogonalLoop=1;jettySize=auto;html=1;exitX=1;exitY=0.25;exitDx=0;exitDy=0;exitPerimeter=0;" edge="1" parent="1" source="gbquePx31MklGb_rPzh0-19" target="gbquePx31MklGb_rPzh0-29">
          <mxGeometry relative="1" as="geometry">
            <Array as="points">
              <mxPoint x="760" y="258" />
              <mxPoint x="760" y="609" />
            </Array>
          </mxGeometry>
        </mxCell>
        <mxCell id="gbquePx31MklGb_rPzh0-19" value="&lt;div&gt;Application Web&lt;/div&gt;&lt;div&gt;Blazor&lt;br&gt;&lt;/div&gt;" style="sketch=0;points=[[0,0,0],[0.25,0,0],[0.5,0,0],[0.75,0,0],[1,0,0],[0,1,0],[0.25,1,0],[0.5,1,0],[0.75,1,0],[1,1,0],[0,0.25,0],[0,0.5,0],[0,0.75,0],[1,0.25,0],[1,0.5,0],[1,0.75,0]];outlineConnect=0;fontColor=#232F3E;fillColor=#EA6B66;strokeColor=#ffffff;dashed=0;verticalLabelPosition=bottom;verticalAlign=top;align=center;html=1;fontSize=12;fontStyle=0;aspect=fixed;shape=mxgraph.aws4.resourceIcon;resIcon=mxgraph.aws4.application_integration;" vertex="1" parent="1">
          <mxGeometry x="530" y="238" width="78" height="78" as="geometry" />
        </mxCell>
        <mxCell id="gbquePx31MklGb_rPzh0-20" style="edgeStyle=orthogonalEdgeStyle;rounded=0;orthogonalLoop=1;jettySize=auto;html=1;exitX=1;exitY=0.75;exitDx=0;exitDy=0;exitPerimeter=0;entryX=0.5;entryY=0;entryDx=0;entryDy=0;entryPerimeter=0;endArrow=classic;endFill=1;startArrow=classic;startFill=1;" edge="1" parent="1" source="gbquePx31MklGb_rPzh0-7" target="gbquePx31MklGb_rPzh0-18">
          <mxGeometry relative="1" as="geometry" />
        </mxCell>
        <mxCell id="gbquePx31MklGb_rPzh0-21" style="edgeStyle=orthogonalEdgeStyle;rounded=0;orthogonalLoop=1;jettySize=auto;html=1;exitX=1;exitY=0.25;exitDx=0;exitDy=0;exitPerimeter=0;entryX=0.5;entryY=0;entryDx=0;entryDy=0;entryPerimeter=0;startArrow=classic;startFill=1;" edge="1" parent="1" source="gbquePx31MklGb_rPzh0-7" target="gbquePx31MklGb_rPzh0-19">
          <mxGeometry relative="1" as="geometry" />
        </mxCell>
        <mxCell id="gbquePx31MklGb_rPzh0-22" value="&lt;div&gt;Base de données&amp;nbsp;&lt;/div&gt;&lt;div&gt;MaraiDB Mode en ligne&lt;br&gt;&lt;/div&gt;&lt;div&gt;&lt;br&gt;&lt;/div&gt;" style="sketch=0;points=[[0,0,0],[0.25,0,0],[0.5,0,0],[0.75,0,0],[1,0,0],[0,1,0],[0.25,1,0],[0.5,1,0],[0.75,1,0],[1,1,0],[0,0.25,0],[0,0.5,0],[0,0.75,0],[1,0.25,0],[1,0.5,0],[1,0.75,0]];outlineConnect=0;fontColor=#232F3E;fillColor=#C925D1;strokeColor=#ffffff;dashed=0;verticalLabelPosition=bottom;verticalAlign=top;align=center;html=1;fontSize=12;fontStyle=0;aspect=fixed;shape=mxgraph.aws4.resourceIcon;resIcon=mxgraph.aws4.neptune;" vertex="1" parent="1">
          <mxGeometry x="640" y="412" width="78" height="78" as="geometry" />
        </mxCell>
        <mxCell id="gbquePx31MklGb_rPzh0-23" value="&lt;div&gt;Base de donnés&amp;nbsp;&lt;/div&gt;&lt;div&gt;SQLite Mode hors ligne&lt;br&gt;&lt;/div&gt;&lt;div&gt;&lt;br&gt;&lt;/div&gt;" style="sketch=0;points=[[0,0,0],[0.25,0,0],[0.5,0,0],[0.75,0,0],[1,0,0],[0,1,0],[0.25,1,0],[0.5,1,0],[0.75,1,0],[1,1,0],[0,0.25,0],[0,0.5,0],[0,0.75,0],[1,0.25,0],[1,0.5,0],[1,0.75,0]];outlineConnect=0;fontColor=#232F3E;fillColor=#B9E0A5;strokeColor=#ffffff;dashed=0;verticalLabelPosition=bottom;verticalAlign=top;align=center;html=1;fontSize=12;fontStyle=0;aspect=fixed;shape=mxgraph.aws4.resourceIcon;resIcon=mxgraph.aws4.database;" vertex="1" parent="1">
          <mxGeometry x="360" y="412" width="78" height="78" as="geometry" />
        </mxCell>
        <mxCell id="gbquePx31MklGb_rPzh0-24" style="edgeStyle=orthogonalEdgeStyle;rounded=0;orthogonalLoop=1;jettySize=auto;html=1;exitX=0;exitY=0.75;exitDx=0;exitDy=0;exitPerimeter=0;entryX=0;entryY=0.25;entryDx=0;entryDy=0;entryPerimeter=0;" edge="1" parent="1" source="gbquePx31MklGb_rPzh0-18" target="gbquePx31MklGb_rPzh0-23">
          <mxGeometry relative="1" as="geometry" />
        </mxCell>
        <mxCell id="gbquePx31MklGb_rPzh0-25" style="edgeStyle=orthogonalEdgeStyle;rounded=0;orthogonalLoop=1;jettySize=auto;html=1;exitX=1;exitY=0.75;exitDx=0;exitDy=0;exitPerimeter=0;entryX=0;entryY=0.75;entryDx=0;entryDy=0;entryPerimeter=0;" edge="1" parent="1" source="gbquePx31MklGb_rPzh0-18" target="gbquePx31MklGb_rPzh0-22">
          <mxGeometry relative="1" as="geometry">
            <Array as="points">
              <mxPoint x="470" y="297" />
              <mxPoint x="470" y="471" />
            </Array>
          </mxGeometry>
        </mxCell>
        <mxCell id="gbquePx31MklGb_rPzh0-26" style="edgeStyle=orthogonalEdgeStyle;rounded=0;orthogonalLoop=1;jettySize=auto;html=1;exitX=1;exitY=0.75;exitDx=0;exitDy=0;exitPerimeter=0;entryX=0.5;entryY=0;entryDx=0;entryDy=0;entryPerimeter=0;" edge="1" parent="1" source="gbquePx31MklGb_rPzh0-19" target="gbquePx31MklGb_rPzh0-22">
          <mxGeometry relative="1" as="geometry" />
        </mxCell>
        <mxCell id="gbquePx31MklGb_rPzh0-28" value="Android et IOS" style="sketch=0;outlineConnect=0;fontColor=#232F3E;gradientColor=none;fillColor=#232F3D;strokeColor=none;dashed=0;verticalLabelPosition=bottom;verticalAlign=top;align=center;html=1;fontSize=12;fontStyle=0;aspect=fixed;pointerEvents=1;shape=mxgraph.aws4.mobile_client;" vertex="1" parent="1">
          <mxGeometry x="655.01" y="690" width="41" height="78" as="geometry" />
        </mxCell>
        <mxCell id="gbquePx31MklGb_rPzh0-29" value="PWA" style="sketch=0;outlineConnect=0;fontColor=#232F3E;gradientColor=none;fillColor=#232F3D;strokeColor=none;dashed=0;verticalLabelPosition=bottom;verticalAlign=top;align=center;html=1;fontSize=12;fontStyle=0;aspect=fixed;pointerEvents=1;shape=mxgraph.aws4.external_sdk;" vertex="1" parent="1">
          <mxGeometry x="645" y="570" width="61.03" height="70" as="geometry" />
        </mxCell>
        <mxCell id="gbquePx31MklGb_rPzh0-31" value="&lt;div&gt;Application Kotlin&lt;/div&gt;&lt;div&gt;WebView&lt;/div&gt;&lt;div&gt;&lt;br&gt;&lt;/div&gt;" style="sketch=0;outlineConnect=0;fontColor=#232F3E;gradientColor=none;fillColor=#232F3D;strokeColor=none;dashed=0;verticalLabelPosition=bottom;verticalAlign=top;align=center;html=1;fontSize=12;fontStyle=0;aspect=fixed;pointerEvents=1;shape=mxgraph.aws4.source_code;" vertex="1" parent="1">
          <mxGeometry x="217.35" y="578" width="45.31" height="62" as="geometry" />
        </mxCell>
        <mxCell id="gbquePx31MklGb_rPzh0-33" value="Android" style="sketch=0;outlineConnect=0;fontColor=#232F3E;gradientColor=none;fillColor=#232F3D;strokeColor=none;dashed=0;verticalLabelPosition=bottom;verticalAlign=top;align=center;html=1;fontSize=12;fontStyle=0;aspect=fixed;pointerEvents=1;shape=mxgraph.aws4.mobile_client;" vertex="1" parent="1">
          <mxGeometry x="219.5" y="690" width="41" height="78" as="geometry" />
        </mxCell>
        <mxCell id="gbquePx31MklGb_rPzh0-34" value="&lt;div&gt;PC&lt;/div&gt;&lt;div&gt;Windows, Linux, MacOS&lt;br&gt;&lt;/div&gt;" style="sketch=0;outlineConnect=0;fontColor=#232F3E;gradientColor=none;fillColor=#232F3D;strokeColor=none;dashed=0;verticalLabelPosition=bottom;verticalAlign=top;align=center;html=1;fontSize=12;fontStyle=0;aspect=fixed;pointerEvents=1;shape=mxgraph.aws4.client;" vertex="1" parent="1">
          <mxGeometry x="40" y="701" width="78" height="76" as="geometry" />
        </mxCell>
        <mxCell id="gbquePx31MklGb_rPzh0-39" value="" style="endArrow=none;html=1;rounded=0;" edge="1" parent="1" source="gbquePx31MklGb_rPzh0-28" target="gbquePx31MklGb_rPzh0-29">
          <mxGeometry width="50" height="50" relative="1" as="geometry">
            <mxPoint x="300" y="940" as="sourcePoint" />
            <mxPoint x="350" y="890" as="targetPoint" />
            <Array as="points">
              <mxPoint x="610" y="700" />
              <mxPoint x="610" y="640" />
            </Array>
          </mxGeometry>
        </mxCell>
        <mxCell id="gbquePx31MklGb_rPzh0-42" value="" style="endArrow=none;html=1;rounded=0;" edge="1" parent="1" source="gbquePx31MklGb_rPzh0-33" target="gbquePx31MklGb_rPzh0-31">
          <mxGeometry width="50" height="50" relative="1" as="geometry">
            <mxPoint x="240" y="880" as="sourcePoint" />
            <mxPoint x="290" y="830" as="targetPoint" />
            <Array as="points">
              <mxPoint x="310" y="700" />
              <mxPoint x="310" y="650" />
            </Array>
          </mxGeometry>
        </mxCell>
      </root>
    </mxGraphModel>
  </diagram>
</mxfile>
